<svg id="Capa_1" enable-background="new 0 0 512 512" height="512" viewBox="0 0 512 512" width="512" xmlns="http://www.w3.org/2000/svg"><g><path d="m369.778 0h-344.022c-14.225 0-25.756 11.531-25.756 25.756v272.911c0 14.224 11.531 25.756 25.756 25.756h158.673c.295 0 .577.117.785.325l68.89 68.89c.7.7 1.896.204 1.896-.785v-67.319c0-.613.497-1.111 1.111-1.111h112.667c14.224 0 25.756-11.531 25.756-25.756v-272.911c-.001-14.225-11.532-25.756-25.756-25.756z" fill="#f2fbff"/><path d="m369.778 0h-15.969c.338 1.664.515 3.387.515 5.151v83.67c0 17.095-11.834 31.933-28.514 35.675-53 11.89-92.733 59.228-92.733 115.979 0 6.899.588 13.661 1.716 20.238 3.858 22.487-13.181 43.105-35.997 43.105h-198.281c2.386 11.756 12.78 20.604 25.24 20.604h158.673c.295 0 .577.117.785.325l68.89 68.89c.7.7 1.896.204 1.896-.785v-67.319c0-.613.497-1.111 1.111-1.111h112.667c14.224 0 25.756-11.531 25.756-25.756v-272.91c0-14.225-11.531-25.756-25.755-25.756z" fill="#dff6fd"/><path d="m274.286 261.079c0-65.421 52.854-118.497 118.191-118.855 65.694-.361 119.524 53.161 119.523 118.856 0 36.435-16.397 69.037-42.213 90.837-16.839 14.22-29.728 32.54-36.698 53.449l-.327.982h-79.238l-.329-.986c-6.855-20.564-19.193-38.923-35.879-52.761-26.286-21.798-43.03-54.703-43.03-91.522z" fill="#fed402"/><path d="m424.338 146.395c28.411 21.964 46.695 56.446 46.451 94.851-.23 36.124-16.577 68.42-42.211 90.067-14.127 11.93-23.207 25.061-28.839 35.438-6.363 11.723-18.651 18.993-31.99 18.993h-23.126c3.431 6.242 6.303 12.809 8.572 19.618l.329.986h79.238l.327-.982c6.97-20.91 19.858-39.229 36.698-53.449 25.816-21.8 42.213-54.401 42.213-90.837 0-54.674-37.284-100.917-87.662-114.685z" fill="#fac600"/><path d="m393.143 512c14.587 0 26.413-11.825 26.413-26.413l-24.022-10.741-28.803 10.741c-.001 14.588 11.825 26.413 26.412 26.413z" fill="#025f80"/><path d="m440.255 313.903c0-12.586-4.901-24.418-13.801-33.317-2.93-2.928-7.678-2.929-10.606.001-2.929 2.929-2.929 7.678 0 10.606 6.066 6.065 9.407 14.131 9.407 22.71s-3.341 16.645-9.407 22.71c-6.066 6.066-14.132 9.407-22.71 9.407-8.579 0-16.645-3.341-22.711-9.407-6.066-6.065-9.407-14.131-9.407-22.71s3.341-16.645 9.407-22.71c2.929-2.93 2.929-7.678 0-10.606-2.928-2.93-7.677-2.929-10.606-.001-8.899 8.899-13.8 20.731-13.8 33.317 0 12.585 4.901 24.418 13.8 33.317 7.106 7.106 16.081 11.662 25.817 13.21v45.913c0 4.143 3.358 7.5 7.5 7.5s7.5-3.357 7.5-7.5v-45.913c9.736-1.548 18.711-6.104 25.817-13.21 8.899-8.899 13.8-20.732 13.8-33.317z" fill="#fee45a"/><path d="m400.638 406.343v-41.217c-.309.549-.608 1.091-.898 1.625-3.319 6.115-8.25 11.018-14.102 14.31v25.282.006h15c0-.002 0-.004 0-.006z" fill="#fedf30"/><path d="m428.578 331.313c-11.131 9.4-19.128 19.545-24.774 28.501 8.511-1.96 16.322-6.266 22.651-12.594 7.322-7.322 11.937-16.631 13.343-26.709-3.5 3.839-7.249 7.449-11.22 10.802z" fill="#fedf30"/><path d="m84.768 133.701v11.531c0 6.721-2.688 12.826-7.045 17.297 4.357 4.471 7.045 10.576 7.045 17.297v11.531c0 4.143-3.358 7.5-7.5 7.5s-7.5-3.357-7.5-7.5v-11.531c0-5.402-4.395-9.797-9.797-9.797h-9.796v21.328c0 4.143-3.358 7.5-7.5 7.5s-7.5-3.357-7.5-7.5v-57.656c0-4.143 3.358-7.5 7.5-7.5s7.5 3.357 7.5 7.5v21.328h9.796c5.402 0 9.797-4.395 9.797-9.797v-11.531c0-4.143 3.358-7.5 7.5-7.5s7.5 3.357 7.5 7.5zm57.459-7.5c-4.142 0-7.5 3.357-7.5 7.5v30.578l-20.662-34.437c-1.734-2.891-5.185-4.271-8.433-3.369-3.249.899-5.498 3.856-5.498 7.228v57.656c0 4.143 3.358 7.5 7.5 7.5s7.5-3.357 7.5-7.5v-30.578l20.662 34.437c1.38 2.3 3.845 3.643 6.431 3.643.665 0 1.338-.089 2.002-.273 3.249-.899 5.498-3.856 5.498-7.228v-57.656c0-4.144-3.358-7.501-7.5-7.501zm213.325-91.026c-4.142 0-7.5 3.357-7.5 7.5v40.358c0 5.402-4.395 9.797-9.797 9.797s-9.796-4.395-9.796-9.797v-40.358c0-4.143-3.358-7.5-7.5-7.5s-7.5 3.357-7.5 7.5v40.358c0 13.673 11.124 24.797 24.796 24.797s24.797-11.124 24.797-24.797v-40.358c0-4.142-3.358-7.5-7.5-7.5zm-85.33 91.027c-4.142 0-7.5 3.357-7.5 7.5v30.577l-3.365-5.608c-1.355-2.26-3.796-3.642-6.431-3.642-2.634 0-5.076 1.383-6.431 3.642l-3.366 5.609v-30.578c0-4.143-3.358-7.5-7.5-7.5s-7.5 3.357-7.5 7.5v57.655c0 3.371 2.249 6.328 5.498 7.228 3.247.903 6.699-.478 8.433-3.369l10.866-18.109 10.865 18.109c1.38 2.3 3.845 3.643 6.431 3.643.665 0 1.338-.089 2.002-.273 3.249-.899 5.498-3.856 5.498-7.228v-57.655c0-4.144-3.358-7.501-7.5-7.501zm-158.548-25.871v-57.656c0-4.143-3.358-7.5-7.5-7.5s-7.5 3.357-7.5 7.5v57.655c0 4.143 3.358 7.5 7.5 7.5s7.5-3.357 7.5-7.499zm130.001-53.797c2.131-3.552.979-8.158-2.572-10.29-3.554-2.131-8.159-.979-10.29 2.573l-10.865 18.109-10.866-18.109c-2.131-3.552-6.739-4.705-10.29-2.573-3.552 2.132-4.704 6.738-2.572 10.29l16.228 27.047v26.75c0 4.143 3.358 7.5 7.5 7.5s7.5-3.357 7.5-7.5v-26.751zm-181.703 168.372c-13.673 0-24.796 11.124-24.796 24.797 0 4.143 3.358 7.5 7.5 7.5s7.5-3.357 7.5-7.5c0-5.402 4.395-9.797 9.797-9.797s9.796 4.395 9.796 9.797c0 3.664-2.335 6.904-5.81 8.062-6.871 2.288-11.487 8.692-11.487 15.935v1.365c0 4.143 3.358 7.5 7.5 7.5s7.5-3.357 7.5-7.5v-1.365c0-.774.493-1.459 1.229-1.704 9.61-3.204 16.067-12.163 16.067-22.293 0-13.673-11.124-24.797-24.796-24.797zm24.796-154.934v23.062c0 13.673-11.124 24.797-24.797 24.797h-17.296c-4.142 0-7.5-3.357-7.5-7.5v-57.656c0-4.143 3.358-7.5 7.5-7.5h17.296c13.673 0 24.797 11.124 24.797 24.797zm-15 0c0-5.402-4.395-9.797-9.797-9.797h-9.796v42.655h9.796c5.402 0 9.797-4.395 9.797-9.797zm80.146 47.859h-17.296c-4.142 0-7.5-3.357-7.5-7.5v-57.656c0-4.143 3.358-7.5 7.5-7.5h17.296c13.673 0 24.797 11.124 24.797 24.797v23.062c0 13.673-11.124 24.797-24.797 24.797zm9.797-47.859c0-5.402-4.395-9.797-9.797-9.797h-9.796v42.655h9.796c5.402 0 9.797-4.395 9.797-9.797zm140.304 0v23.062c0 13.673-11.124 24.796-24.796 24.796s-24.797-11.123-24.797-24.796v-23.062c0-13.673 11.124-24.797 24.796-24.797s24.797 11.124 24.797 24.797zm-15 0c0-5.402-4.395-9.797-9.796-9.797s-9.797 4.395-9.797 9.797v23.062c0 5.401 4.395 9.796 9.796 9.796s9.797-4.395 9.797-9.796zm-72.252 91.026v23.062c0 13.673-11.124 24.797-24.796 24.797-13.673 0-24.797-11.124-24.797-24.797v-23.062c0-13.673 11.124-24.797 24.796-24.797 13.673 0 24.797 11.124 24.797 24.797zm-15 0c0-5.402-4.395-9.797-9.796-9.797-5.402 0-9.797 4.395-9.797 9.797v23.062c0 5.402 4.395 9.797 9.796 9.797 5.402 0 9.797-4.395 9.797-9.797zm-137.791 132.184c-4.267 0-7.726 3.459-7.726 7.726s3.459 7.726 7.726 7.726 7.726-3.459 7.726-7.726-3.459-7.726-7.726-7.726z" fill="#0681af"/><path d="m270.222 198.858c.665 0 1.338-.089 2.002-.273 3.249-.899 5.498-3.856 5.498-7.228v-43.727c-5.405 4.326-10.425 9.114-15 14.305v2.344l-.833-1.389c-8.317 9.643-15.114 20.638-20.013 32.616.063-.095.125-.192.184-.291l10.866-18.109 10.865 18.109c1.379 2.3 3.844 3.643 6.431 3.643z" fill="#017297"/><path d="m355.552 35.175c-.418 0-.828.035-1.227.101v53.545c0 5.523-1.236 10.81-3.471 15.564 7.296-4.322 12.198-12.275 12.198-21.351v-40.359c0-4.142-3.358-7.5-7.5-7.5z" fill="#017297"/><path d="m359.738 485.587h66.81c10.726 0 19.42-8.695 19.42-19.42v-58.831c0-.545-.442-.987-.987-.987h-103.677c-.545 0-.987.442-.987.987v58.831c0 10.725 8.695 19.42 19.421 19.42z" fill="#b4d2e2"/><g><path d="m419.549 440.254h-84.975c-4.142 0-7.5-3.357-7.5-7.5s3.358-7.5 7.5-7.5h84.975c4.142 0 7.5 3.357 7.5 7.5s-3.358 7.5-7.5 7.5z" fill="#d8e8f0"/></g><g><path d="m450.744 466.666h-84.018c-4.142 0-7.5-3.357-7.5-7.5s3.358-7.5 7.5-7.5h84.018c4.142 0 7.5 3.357 7.5 7.5s-3.358 7.5-7.5 7.5z" fill="#d8e8f0"/></g></g></svg>