<svg id="Capa_1" enable-background="new 0 0 512 512" height="512" viewBox="0 0 512 512" width="512" xmlns="http://www.w3.org/2000/svg"><g><path d="m30.905 0c-17.068 0-30.905 13.837-30.905 30.905v450.189c0 17.069 13.837 30.906 30.905 30.906 17.069 0 30.905-13.837 30.905-30.905v-39.775l91.206-206.311-91.205-204.104c0-17.068-13.837-30.905-30.906-30.905z" fill="#d6948c"/><g><path d="m454.869 54.722c-47.462 8.457-93.082-1.078-145.981-17.307l-67.15 30.905v311.532l67.893 67.893c55.902 17.024 103.423 26.764 153.861 15.493 28.312-6.325 48.508-31.357 48.508-60.368v-300.526c0-30.229-27.371-52.925-57.131-47.622z" fill="#efedff"/><path d="m282.254 339.057c-4.461-31.123-5.761-63.111-5.97-94.747-.308-45.757 2.505-80.816 7.53-111.13 5.84-35.224 14.669-64.039 25.074-95.764-81.116-24.879-166.136-57.225-247.077-6.51v410.414c81.189-50.87 166.456-18.348 247.82 6.427-13.88-41.804-22.414-74.065-27.377-108.69z" fill="#d4d4ff"/></g><g><g><path d="m405.768 124.309-273.776 60.189 143.163 214.509 121.98-42.507c32.587-29.872 53.054-72.765 53.054-120.352 0-43.232-16.89-82.6-44.421-111.839z" fill="#7ce3ff"/><path d="m212.341 240.577-27.804-67.63-52.546 11.55c-5.429 16.241-8.37 33.607-8.37 51.65 0 85.219 65.835 156.501 151.533 162.859l6.269-29.397c-40.713-28.778-67.674-75.72-69.082-129.032z" fill="#2ed0fc"/></g><g><path d="m331.231 79.001-129.151 20.701v140.876h10.261c6.664-1.118 13.054 3.296 14.279 10.016l5.898 32.35c3.204 17.573 13.583 33.063 28.724 42.54 16.025 10.03 33.311 9.874 34.2 9.874 5.178 0 8.406 5.1 6.586 9.773-6.458 16.579-19.434 23.587-20.605 24.48v23.731h49.685c24.737-6.97 47.298-19.673 66.026-36.841.675-2.031.987-5.026.987-7.333v-7.378c0-11.462-1.858-19.087-11.182-27.985-6.615-6.313-15.485-9.72-24.629-9.72h-62.14c-7.131 0-13.267-4.202-13.267-14.154 0-9.581-7.768-17.354-17.349-17.354l19.065-19.066c6.786-6.787 1.98-18.39-7.617-18.39 0-12.84 10.409-23.249 23.249-23.249h21.202c3.68 0 7.21 1.462 9.812 4.064 0 0 14.283 14.265 14.536 14.484 7.369 6.382 18.883.727 18.883-9.022v-21.171c0-8.824 7.153-15.977 15.977-15.977.075-.007.151-.014.226-.021 11.885-1.113 20.878-11.276 20.878-23.213v-36.707c-20.174-21.429-45.874-37.205-74.534-45.308z" fill="#30cd9c"/><g fill="#0caf7b"><path d="m281.424 369.61c-3.745 2.883-6.269 6.288-6.269 11.053v18.344c19.368 1.385 38.22-.669 55.955-5.666-18.021-5.087-34.775-13.192-49.686-23.731z"/><path d="m331.231 79.001c-14.155-4.002-29.029-6.139-44.325-6.139-71.992 0-133.252 46.836-154.914 111.636h13.232c13.15 0 23.811 10.661 23.811 23.811v35.627c.97 18.839 27.258 22.92 33.746 4.669 1.411-3.97 4.805-7.207 9.56-8.028-.039-1.459-.06-2.922-.06-4.39 0-74.812 50.315-137.869 118.95-157.186z"/></g></g></g><g fill="#313d40"><path d="m222.519 147.229c-4.268 0-7.726 3.459-7.726 7.726v12.362c0 4.268 3.459 7.726 7.726 7.726s7.726-3.459 7.726-7.726v-12.362c0-4.267-3.458-7.726-7.726-7.726z"/><path d="m351.292 147.229c-4.268 0-7.726 3.459-7.726 7.726v12.362c0 4.268 3.459 7.726 7.726 7.726s7.726-3.459 7.726-7.726v-12.362c0-4.267-3.459-7.726-7.726-7.726z"/><path d="m308.942 161.105c-3.216-2.804-8.099-2.47-10.9.749-2.812 3.226-6.87 5.076-11.136 5.076s-8.324-1.85-11.136-5.076c-2.803-3.218-7.684-3.552-10.9-.749-3.217 2.803-3.553 7.684-.749 10.9 5.746 6.596 14.052 10.378 22.786 10.378s17.039-3.783 22.786-10.378c2.802-3.216 2.466-8.098-.751-10.9z"/></g></g></svg>