<svg id="Icons" height="512" viewBox="0 0 60 60" width="512" xmlns="http://www.w3.org/2000/svg"><path d="m46.99 10.19a9.5 9.5 0 0 0 -18.99.31v.27a9.479 9.479 0 0 0 -14.99 7.42l4.01-.01a5.495 5.495 0 0 1 10.98.32v30.5h4v-38.5a5.495 5.495 0 0 1 10.98-.32z" fill="#4c8056"/><path d="m47 56v2a1 1 0 0 1 -1 1h-32a1 1 0 0 1 -1-1v-2a3 3 0 0 1 3-3h4v-2a2.006 2.006 0 0 1 2-2h16a2.006 2.006 0 0 1 2 2v2h4a3 3 0 0 1 3 3z" fill="#a56a43"/><path d="m24 52a1 1 0 0 1 -1 1h-3v-2h3a1 1 0 0 1 1 1z" fill="#805333"/><path d="m40 51v2h-3a1 1 0 0 1 0-2z" fill="#805333"/><path d="m45 10c6 0 11 5 11 12s-6 15-12 17c0 0 1.8-7.746-2-11-7-6-7-18 3-18z" fill="#4fba6f"/><path d="m15 18c-6 0-11 5-11 12s6 15 12 17c0 0-1.8-7.746 2-11 7-6 7-18-3-18z" fill="#4fba6f"/><g fill="#24ae5f"><path d="m10.988 38a1 1 0 0 1 -.947-.678c-.069-.206-1.676-5.066 1.208-8.021 3.434-3.519 2.7-6.927 2.669-7.071a1 1 0 0 1 .744-1.2.993.993 0 0 1 1.2.733c.045.185 1.058 4.589-3.182 8.935-2.036 2.087-.759 5.942-.745 5.98a1 1 0 0 1 -.947 1.322z"/><path d="m49.012 30a1 1 0 0 1 -.948-1.322c.013-.036 1.279-3.907-.745-5.979-4.24-4.347-3.227-8.751-3.182-8.936a1 1 0 0 1 1.944.468c-.036.161-.755 3.561 2.67 7.071 2.884 2.954 1.277 7.814 1.208 8.02a1 1 0 0 1 -.947.678z"/></g></svg>