<svg fill="none" height="512" viewBox="0 0 24 24" width="512" xmlns="http://www.w3.org/2000/svg"><g fill="rgb(0,0,0)"><path d="m15 15c-1.1046 0-2 .8954-2 2v3c0 1.1046.8954 2 2 2h.024c1.2531 0 2.3284-.0658 3.2268-.2655.9099-.2022 1.6986-.5547 2.3138-1.1699s.9677-1.4039 1.1699-2.3138c.0917-.4126.1522-.8314.1919-1.2529.1037-1.0997-.8218-1.9979-1.9264-1.9979z"/><path d="m2 15.024v-2.024c0-1.1046.89543-2 2-2h5c1.1046 0 2 .8954 2 2v7c0 1.1046-.8954 2-2 2h-.024c-1.25313 0-2.32838-.0658-3.22685-.2655-.90982-.2022-1.6985-.5547-2.31372-1.1699s-.96771-1.4039-1.16991-2.3138c-.19968-.8984-.26552-1.9737-.26552-3.2268z"/><path d="m22 11c0 1.1046-.8954 2-2 2h-5c-1.1046 0-2-.8954-2-2v-7c0-1.10457.8954-2 2-2h.024c1.2531 0 2.3284.06584 3.2268.26552.9099.2022 1.6986.55469 2.3138 1.16991s.9677 1.4039 1.1699 2.31372c.1997.89847.2655 1.97372.2655 3.22685z"/><path d="m11 4c0-1.10457-.8954-2-2-2h-.024c-1.25313 0-2.32838.06584-3.22685.26552-.90982.2022-1.6985.55469-2.31372 1.16991s-.96771 1.4039-1.16991 2.31372c-.09171.41265-.15223.83148-.19196 1.25295-.10365 1.0997.82187 1.9979 1.92644 1.9979h5c1.1046 0 2-.89543 2-2z"/></g></svg>